<svg xmlns="http://www.w3.org/2000/svg" viewBox="0 0 900 600" preserveAspectRatio="xMidYMid slice"><defs><linearGradient id="g" gradientUnits="userSpaceOnUse" x1="0" y1="0" x2="-866.0242981199075" y2="500.0019150622542"><stop offset="0" stop-color="#2b2d4a"/><stop offset="1" stop-color="#11101acc"/></linearGradient></defs><rect width="1000" height="1000" fill="url(#g)"/><rect x="0" y="285.0" width="42" height="89" fill="#14122b"/><rect x="48" y="256.0" width="61" height="118" fill="#14122b"/><rect x="54" y="242.0" width="6" height="14" fill="#14122b" opacity="0.9"/><rect x="115" y="199.0" width="78" height="175" fill="#14122b"/><rect x="121" y="185.0" width="6" height="14" fill="#14122b" opacity="0.9"/><rect x="199" y="234.0" width="83" height="140" fill="#14122b"/><rect x="205" y="220.0" width="6" height="14" fill="#14122b" opacity="0.9"/><rect x="288" y="241.0" width="96" height="133" fill="#14122b"/><rect x="294" y="227.0" width="6" height="14" fill="#14122b" opacity="0.9"/><rect x="390" y="292.0" width="75" height="82" fill="#14122b"/><rect x="396" y="278.0" width="6" height="14" fill="#14122b" opacity="0.9"/><rect x="471" y="291.0" width="46" height="83" fill="#14122b"/><rect x="523" y="190.0" width="97" height="184" fill="#14122b"/><rect x="529" y="176.0" width="6" height="14" fill="#14122b" opacity="0.9"/><rect x="626" y="205.0" width="62" height="169" fill="#14122b"/><rect x="632" y="191.0" width="6" height="14" fill="#14122b" opacity="0.9"/><rect x="694" y="256.0" width="71" height="118" fill="#14122b"/><rect x="700" y="242.0" width="6" height="14" fill="#14122b" opacity="0.9"/><rect x="771" y="175.0" width="52" height="199" fill="#14122b"/><rect x="829" y="202.0" width="95" height="172" fill="#14122b"/><rect x="835" y="188.0" width="6" height="14" fill="#14122b" opacity="0.9"/><rect x="0" y="372.0" width="900" height="228.0" fill="#14122b"/><circle cx="648.0" cy="204.00000000000003" r="26" fill="#e08a5e" opacity="0.85"/><rect width="1000" height="1000" fill="none" opacity="0.06"><animate attributeName="opacity" values="0.06;0.03;0.06" dur="6s" repeatCount="indefinite"/></rect></svg>